<svg width="3760" height="624" viewBox="0 0 3760 624" fill="none" xmlns="http://www.w3.org/2000/svg">
<path d="M0 614.785V153.245H98.4212V356.746H104.558L272.079 153.245H390.048L217.299 359.901L392.093 614.785H274.352L146.836 425.031L98.4212 483.624V614.785H0Z" fill="#171717"/>
<path d="M562.087 621.545C526.173 621.545 495.26 614.334 469.348 599.911C443.587 585.337 423.736 564.754 409.795 538.162C395.854 511.419 388.884 479.793 388.884 443.285C388.884 407.678 395.854 376.428 409.795 349.535C423.736 322.642 443.36 301.683 468.666 286.659C494.124 271.635 523.976 264.123 558.222 264.123C581.256 264.123 602.698 267.804 622.549 275.165C642.551 282.377 659.977 293.269 674.828 307.843C689.83 322.416 701.498 340.746 709.832 362.831C718.166 384.766 722.334 410.457 722.334 439.904V466.272H427.525V406.776H631.186C631.186 392.954 628.155 380.71 622.094 370.042C616.033 359.375 607.622 351.037 596.864 345.027C586.256 338.868 573.906 335.788 559.814 335.788C545.115 335.788 532.083 339.168 520.718 345.929C509.504 352.539 500.715 361.479 494.351 372.747C487.987 383.865 484.729 396.259 484.577 409.931V466.497C484.577 483.624 487.759 498.423 494.124 510.893C500.64 523.363 509.807 532.979 521.627 539.739C533.447 546.5 547.464 549.881 563.678 549.881C574.437 549.881 584.286 548.378 593.227 545.373C602.167 542.369 609.82 537.861 616.184 531.852C622.549 525.842 627.398 518.48 630.731 509.766L720.288 515.626C715.742 536.96 706.422 555.59 692.33 571.515C678.389 587.291 660.356 599.61 638.232 608.475C616.26 617.188 590.878 621.545 562.087 621.545Z" fill="#171717"/>
<path d="M871.472 414.664V614.785H774.642V268.63H866.926V329.703H871.017C878.745 309.571 891.702 293.645 909.886 281.926C928.07 270.057 950.118 264.123 976.03 264.123C1000.28 264.123 1021.41 269.381 1039.45 279.898C1057.48 290.415 1071.5 305.439 1081.5 324.97C1091.5 344.351 1096.5 367.488 1096.5 394.381V614.785H999.669V411.509C999.821 390.325 994.366 373.799 983.304 361.929C972.242 349.91 957.013 343.901 937.616 343.901C924.584 343.901 913.068 346.68 903.067 352.239C893.217 357.798 885.489 365.911 879.882 376.578C874.427 387.095 871.623 399.79 871.472 414.664Z" fill="#171717"/>
<path d="M1160.12 614.785V557.543L1331.05 347.732V345.253H1166.03V268.63H1447.65V331.055L1287.18 535.683V538.162H1453.56V614.785H1160.12Z" fill="#171717"/>
<path d="M1516.72 614.785V268.63H1613.55V614.785H1516.72ZM1565.36 224.008C1550.97 224.008 1538.62 219.276 1528.32 209.811C1518.16 200.195 1513.09 188.702 1513.09 175.33C1513.09 162.109 1518.16 150.766 1528.32 141.301C1538.62 131.686 1550.97 126.878 1565.36 126.878C1579.76 126.878 1592.03 131.686 1602.19 141.301C1612.49 150.766 1617.64 162.109 1617.64 175.33C1617.64 188.702 1612.49 200.195 1602.19 209.811C1592.03 219.276 1579.76 224.008 1565.36 224.008Z" fill="#171717"/>
<path d="M1839.35 621.545C1803.43 621.545 1772.52 614.334 1746.61 599.911C1720.85 585.337 1701 564.754 1687.06 538.162C1673.12 511.419 1666.15 479.793 1666.15 443.285C1666.15 407.678 1673.12 376.428 1687.06 349.535C1701 322.642 1720.62 301.683 1745.93 286.659C1771.39 271.635 1801.24 264.123 1835.48 264.123C1858.52 264.123 1879.96 267.804 1899.81 275.165C1919.81 282.377 1937.24 293.269 1952.09 307.843C1967.09 322.416 1978.76 340.746 1987.09 362.831C1995.43 384.766 1999.59 410.457 1999.59 439.904V466.272H1704.79V406.776H1908.45C1908.45 392.954 1905.42 380.71 1899.36 370.042C1893.29 359.375 1884.88 351.037 1874.13 345.027C1863.52 338.868 1851.17 335.788 1837.08 335.788C1822.38 335.788 1809.34 339.168 1797.98 345.929C1786.77 352.539 1777.98 361.479 1771.61 372.747C1765.25 383.865 1761.99 396.259 1761.84 409.931V466.497C1761.84 483.624 1765.02 498.423 1771.39 510.893C1777.9 523.363 1787.07 532.979 1798.89 539.739C1810.71 546.5 1824.73 549.881 1840.94 549.881C1851.7 549.881 1861.55 548.378 1870.49 545.373C1879.43 542.369 1887.08 537.861 1893.45 531.852C1899.81 525.842 1904.66 518.48 1907.99 509.766L1997.55 515.626C1993 536.96 1983.68 555.59 1969.59 571.515C1955.65 587.291 1937.62 599.61 1915.49 608.475C1893.52 617.188 1868.14 621.545 1839.35 621.545Z" fill="#171717"/>
<path d="M2053.72 153.245H2175.1L2303.3 463.342H2308.75L2436.95 153.245H2558.33V614.785H2462.86V314.378H2459L2338.53 612.531H2273.52L2153.05 313.251H2149.19V614.785H2053.72V153.245Z" fill="#00A48B"/>
<path d="M2628.54 614.785V153.245H2942.21V233.699H2726.96V343.675H2926.07V424.129H2726.96V534.331H2943.12V614.785H2628.54Z" fill="#00A48B"/>
<path d="M3174.6 614.785H3009.58V153.245H3175.96C3222.79 153.245 3263.09 162.485 3296.89 180.965C3330.68 199.294 3356.67 225.661 3374.85 260.066C3393.19 294.471 3402.35 335.637 3402.35 383.564C3402.35 431.641 3393.19 472.957 3374.85 507.513C3356.67 542.068 3330.53 568.586 3296.43 587.065C3262.49 605.545 3221.88 614.785 3174.6 614.785ZM3108 531.176H3170.51C3199.6 531.176 3224.07 526.067 3243.93 515.851C3263.93 505.485 3289.94 499.641 3299.95 478.006C3340.96 466.288 3340.61 362.57 3299.95 376.804C3299.95 342.699 3299.08 321.59 3288.93 299.955C3278.93 278.321 3264 262.395 3244.15 252.179C3224.3 241.962 3199.83 236.854 3170.73 236.854H3108V531.176Z" fill="#00A48B"/>
<path d="M3542.94 624H3526.71C3466.46 624 3417.45 575.852 3417.45 516.681V267.712H3441.43V516.687C3441.43 562.755 3479.69 600.235 3526.71 600.235H3542.94C3589.95 600.235 3628.21 562.755 3628.21 516.687V309.263H3652.18V516.687C3652.17 575.858 3603.17 624 3542.94 624Z" fill="#171717"/>
<path d="M3273.71 362.57H3249.73V248.221C3249.73 199.794 3289.83 160.394 3339.13 160.394H3352.02C3401.31 160.394 3441.4 199.794 3441.4 248.221V292.963H3417.43V248.221C3417.43 212.897 3388.08 184.164 3352.02 184.164H3339.13C3303.06 184.164 3273.71 212.897 3273.71 248.221V362.57Z" fill="#171717"/>
<path d="M3260.27 501.783C3215.97 501.783 3179.93 466.358 3179.93 422.822C3179.93 379.286 3215.98 343.868 3260.27 343.868C3304.58 343.868 3340.61 379.286 3340.61 422.822C3340.61 466.358 3304.57 501.783 3260.27 501.783ZM3260.27 367.639C3229.19 367.639 3203.91 392.384 3203.91 422.816C3203.91 453.249 3229.19 478.006 3260.27 478.006C3291.35 478.006 3316.64 453.249 3316.64 422.816C3316.64 392.384 3291.35 367.639 3260.27 367.639Z" fill="#171717"/>
<path d="M3760 157.665H3736.02V63.9017C3736.02 41.7712 3717.63 23.7708 3695.01 23.7708V0C3730.85 0 3760 28.6675 3760 63.9017V157.665Z" fill="#171717"/>
<path d="M3513.26 158.504H3489.28V64.7404C3489.28 29.5003 3518.45 0.83278 3554.29 0.83278V24.6035C3531.67 24.6035 3513.26 42.6099 3513.26 64.7404V158.504Z" fill="#171717"/>
<path d="M3652.34 323.093H3597.68C3538.31 323.093 3490.01 275.647 3490.01 217.331V157.53H3513.98V217.331C3513.98 262.537 3551.53 299.322 3597.68 299.322H3652.34C3698.48 299.322 3736.02 262.543 3736.02 217.331V157.53H3760V217.331C3760 275.647 3711.7 323.093 3652.34 323.093Z" fill="#171717"/>
</svg>
