<svg width="3760" height="640" viewBox="0 0 3760 640" fill="none" xmlns="http://www.w3.org/2000/svg">
<path d="M0 630.548V157.174H98.4212V365.894H104.558L272.079 157.174H390.048L217.299 369.129L392.093 630.548H274.352L146.836 435.929L98.4212 496.025V630.548H0Z" fill="white"/>
<path d="M562.087 637.483C526.173 637.483 495.26 630.086 469.348 615.293C443.587 600.346 423.736 579.235 409.795 551.961C395.854 524.532 388.884 492.096 388.884 454.651C388.884 418.131 395.854 386.08 409.795 358.497C423.736 330.914 443.36 309.418 468.666 294.009C494.124 278.6 523.976 270.895 558.222 270.895C581.256 270.895 602.698 274.67 622.549 282.221C642.551 289.617 659.977 300.789 674.828 315.736C689.83 330.683 701.498 349.483 709.832 372.134C718.166 394.632 722.334 420.982 722.334 451.184V478.227H427.525V417.207H631.186C631.186 403.03 628.155 390.471 622.094 379.531C616.033 368.59 607.622 360.038 596.864 353.874C586.256 347.556 573.906 344.398 559.814 344.398C545.115 344.398 532.083 347.865 520.718 354.799C509.504 361.579 500.715 370.747 494.351 382.304C487.987 393.707 484.729 406.42 484.577 420.442V478.459C484.577 496.025 487.759 511.203 494.124 523.993C500.64 536.783 509.807 546.645 521.627 553.579C533.447 560.513 547.464 563.98 563.678 563.98C574.437 563.98 584.286 562.439 593.227 559.357C602.167 556.276 609.82 551.653 616.184 545.489C622.549 539.325 627.398 531.775 630.731 522.837L720.288 528.847C715.742 550.728 706.422 569.836 692.33 586.17C678.389 602.349 660.356 614.985 638.232 624.076C616.26 633.014 590.878 637.483 562.087 637.483Z" fill="white"/>
<path d="M871.472 425.296V630.548H774.642V275.518H866.926V338.157H871.017C878.745 317.508 891.702 301.174 909.886 289.155C928.07 276.982 950.118 270.895 976.03 270.895C1000.28 270.895 1021.41 276.288 1039.45 287.075C1057.48 297.861 1071.5 313.271 1081.5 333.303C1091.5 353.181 1096.5 376.911 1096.5 404.494V630.548H999.669V422.06C999.821 400.333 994.366 383.383 983.304 371.21C972.242 358.882 957.013 352.719 937.616 352.719C924.584 352.719 913.068 355.569 903.067 361.271C893.217 366.972 885.489 375.293 879.882 386.234C874.427 397.02 871.623 410.041 871.472 425.296Z" fill="white"/>
<path d="M1160.12 630.548V571.839L1331.05 356.648V354.105H1166.03V275.518H1447.65V339.544L1287.18 549.418V551.961H1453.56V630.548H1160.12Z" fill="white"/>
<path d="M1516.72 630.548V275.518H1613.55V630.548H1516.72ZM1565.36 229.752C1550.97 229.752 1538.62 224.898 1528.32 215.191C1518.16 205.329 1513.09 193.54 1513.09 179.826C1513.09 166.266 1518.16 154.632 1528.32 144.924C1538.62 135.062 1550.97 130.131 1565.36 130.131C1579.76 130.131 1592.03 135.062 1602.19 144.924C1612.49 154.632 1617.64 166.266 1617.64 179.826C1617.64 193.54 1612.49 205.329 1602.19 215.191C1592.03 224.898 1579.76 229.752 1565.36 229.752Z" fill="white"/>
<path d="M1839.35 637.483C1803.43 637.483 1772.52 630.086 1746.61 615.293C1720.85 600.346 1701 579.235 1687.06 551.961C1673.12 524.532 1666.15 492.096 1666.15 454.651C1666.15 418.131 1673.12 386.08 1687.06 358.497C1701 330.914 1720.62 309.418 1745.93 294.009C1771.39 278.6 1801.24 270.895 1835.48 270.895C1858.52 270.895 1879.96 274.67 1899.81 282.221C1919.81 289.617 1937.24 300.789 1952.09 315.736C1967.09 330.683 1978.76 349.483 1987.09 372.134C1995.43 394.632 1999.59 420.982 1999.59 451.184V478.227H1704.79V417.207H1908.45C1908.45 403.03 1905.42 390.471 1899.36 379.531C1893.29 368.59 1884.88 360.038 1874.13 353.874C1863.52 347.556 1851.17 344.398 1837.08 344.398C1822.38 344.398 1809.34 347.865 1797.98 354.799C1786.77 361.579 1777.98 370.747 1771.61 382.304C1765.25 393.707 1761.99 406.42 1761.84 420.442V478.459C1761.84 496.025 1765.02 511.203 1771.39 523.993C1777.9 536.783 1787.07 546.645 1798.89 553.579C1810.71 560.513 1824.73 563.98 1840.94 563.98C1851.7 563.98 1861.55 562.439 1870.49 559.357C1879.43 556.276 1887.08 551.653 1893.45 545.489C1899.81 539.325 1904.66 531.775 1907.99 522.837L1997.55 528.847C1993 550.728 1983.68 569.836 1969.59 586.17C1955.65 602.349 1937.62 614.985 1915.49 624.076C1893.52 633.014 1868.14 637.483 1839.35 637.483Z" fill="white"/>
<path d="M2053.72 157.174H2175.1L2303.3 475.223H2308.75L2436.95 157.174H2558.33V630.548H2462.86V322.439H2459L2338.53 628.237H2273.52L2153.05 321.284H2149.19V630.548H2053.72V157.174Z" fill="#00A48B"/>
<path d="M2628.54 630.548V157.174H2942.21V239.691H2726.96V352.487H2926.07V435.004H2726.96V548.032H2943.12V630.548H2628.54Z" fill="#00A48B"/>
<path d="M3174.6 630.548H3009.58V157.174H3175.96C3222.79 157.174 3263.09 166.651 3296.89 185.605C3330.68 204.404 3356.67 231.447 3374.85 266.735C3393.19 302.022 3402.35 344.243 3402.35 393.399C3402.35 442.709 3393.19 485.085 3374.85 520.526C3356.67 555.967 3330.53 583.165 3296.43 602.118C3262.49 621.072 3221.88 630.548 3174.6 630.548ZM3108 544.796H3170.51C3199.6 544.796 3224.07 539.556 3243.93 529.078C3263.93 518.446 3289.94 512.452 3299.95 490.263C3340.96 478.244 3340.61 371.866 3299.95 386.465C3299.95 351.486 3299.08 329.836 3288.93 307.646C3278.93 285.457 3264 269.123 3244.15 258.645C3224.3 248.166 3199.83 242.927 3170.73 242.927H3108V544.796Z" fill="#00A48B"/>
<path d="M3542.94 640H3526.71C3466.46 640 3417.45 590.618 3417.45 529.929V274.576H3441.43V529.935C3441.43 577.184 3479.69 615.626 3526.71 615.626H3542.94C3589.95 615.626 3628.21 577.184 3628.21 529.935V317.193H3652.18V529.935C3652.17 590.624 3603.17 640 3542.94 640Z" fill="white"/>
<path d="M3273.71 371.866H3249.73V254.585C3249.73 204.917 3289.83 164.506 3339.13 164.506H3352.02C3401.31 164.506 3441.4 204.917 3441.4 254.585V300.475H3417.43V254.585C3417.43 218.356 3388.08 188.887 3352.02 188.887H3339.13C3303.06 188.887 3273.71 218.356 3273.71 254.585V371.866Z" fill="white"/>
<path d="M3260.27 514.649C3215.97 514.649 3179.93 478.316 3179.93 433.664C3179.93 389.011 3215.98 352.685 3260.27 352.685C3304.58 352.685 3340.61 389.011 3340.61 433.664C3340.61 478.316 3304.57 514.649 3260.27 514.649ZM3260.27 377.065C3229.19 377.065 3203.91 402.445 3203.91 433.658C3203.91 464.871 3229.19 490.263 3260.27 490.263C3291.35 490.263 3316.64 464.871 3316.64 433.658C3316.64 402.445 3291.35 377.065 3260.27 377.065Z" fill="white"/>
<path d="M3760 161.708H3736.02V65.5402C3736.02 42.8422 3717.63 24.3803 3695.01 24.3803V0C3730.85 0 3760 29.4026 3760 65.5402V161.708Z" fill="white"/>
<path d="M3513.26 162.568H3489.28V66.4005C3489.28 30.2567 3518.45 0.854133 3554.29 0.854133V25.2344C3531.67 25.2344 3513.26 43.7024 3513.26 66.4005V162.568Z" fill="white"/>
<path d="M3652.34 331.377H3597.68C3538.31 331.377 3490.01 282.714 3490.01 222.904V161.569H3513.98V222.904C3513.98 269.269 3551.53 306.997 3597.68 306.997H3652.34C3698.48 306.997 3736.02 269.275 3736.02 222.904V161.569H3760V222.904C3760 282.714 3711.7 331.377 3652.34 331.377Z" fill="white"/>
</svg>
