<svg width="3043" height="504" viewBox="0 0 3043 504" fill="none" xmlns="http://www.w3.org/2000/svg">
<path d="M0 496.557V123.775H79.6531V288.141H84.6199L220.196 123.775H315.669L175.862 290.689L317.325 496.557H222.035L118.836 343.294L79.6531 390.62V496.557H0Z" fill="#171717"/>
<path d="M454.901 502.017C425.836 502.017 400.818 496.193 379.847 484.543C358.999 472.773 342.933 456.148 331.651 434.669C320.368 413.069 314.727 387.525 314.727 358.038C314.727 329.278 320.368 304.038 331.651 282.316C342.933 260.595 358.815 243.667 379.295 231.532C399.899 219.397 424.058 213.33 451.774 213.33C470.415 213.33 487.768 216.303 503.834 222.249C520.022 228.074 534.125 236.871 546.144 248.642C558.285 260.413 567.728 275.218 574.473 293.056C581.218 310.773 584.591 331.523 584.591 355.307V376.604H345.999V328.55H510.824C510.824 317.386 508.371 307.496 503.466 298.88C498.56 290.265 491.754 283.53 483.047 278.676C474.462 273.701 464.467 271.213 453.062 271.213C441.166 271.213 430.619 273.943 421.421 279.404C412.346 284.743 405.233 291.964 400.082 301.065C394.932 310.044 392.295 320.056 392.172 331.098V376.786C392.172 390.62 394.748 402.573 399.899 412.645C405.172 422.716 412.592 430.483 422.157 435.943C431.723 441.404 443.067 444.134 456.189 444.134C464.896 444.134 472.868 442.921 480.104 440.494C487.339 438.067 493.532 434.427 498.683 429.573C503.834 424.719 507.758 418.773 510.456 411.734L582.935 416.467C579.256 433.698 571.714 448.746 560.309 461.608C549.026 474.35 534.432 484.301 516.527 491.46C498.744 498.498 478.203 502.017 454.901 502.017Z" fill="#171717"/>
<path d="M705.29 334.921V496.557H626.924V216.97H701.61V266.298H704.922C711.176 250.038 721.662 237.175 736.378 227.71C751.095 218.123 768.938 213.33 789.909 213.33C809.531 213.33 826.639 217.577 841.233 226.071C855.827 234.566 867.171 246.701 875.265 262.476C883.359 278.13 887.406 296.818 887.406 318.539V496.557H809.041V332.373C809.164 315.262 804.749 301.914 795.796 292.328C786.843 282.62 774.518 277.766 758.821 277.766C748.274 277.766 738.954 280.011 730.859 284.501C722.888 288.991 716.634 295.543 712.096 304.159C707.681 312.654 705.412 322.907 705.29 334.921Z" fill="#171717"/>
<path d="M938.892 496.557V450.323L1077.23 280.86V278.858H943.674V216.97H1171.6V267.391L1041.72 432.667V434.669H1176.38V496.557H938.892Z" fill="#171717"/>
<path d="M1227.5 496.557V216.97H1305.86V496.557H1227.5ZM1266.86 180.93C1255.21 180.93 1245.22 177.107 1236.88 169.463C1228.66 161.696 1224.55 152.413 1224.55 141.613C1224.55 130.934 1228.66 121.773 1236.88 114.128C1245.22 106.361 1255.21 102.478 1266.86 102.478C1278.51 102.478 1288.45 106.361 1296.66 114.128C1305 121.773 1309.17 130.934 1309.17 141.613C1309.17 152.413 1305 161.696 1296.66 169.463C1288.45 177.107 1278.51 180.93 1266.86 180.93Z" fill="#171717"/>
<path d="M1488.6 502.017C1459.54 502.017 1434.52 496.193 1413.55 484.543C1392.7 472.773 1376.63 456.148 1365.35 434.669C1354.07 413.069 1348.43 387.525 1348.43 358.038C1348.43 329.278 1354.07 304.038 1365.35 282.316C1376.63 260.595 1392.51 243.667 1412.99 231.532C1433.6 219.397 1457.76 213.33 1485.47 213.33C1504.11 213.33 1521.47 216.303 1537.53 222.249C1553.72 228.074 1567.82 236.871 1579.84 248.642C1591.98 260.413 1601.43 275.218 1608.17 293.056C1614.92 310.773 1618.29 331.523 1618.29 355.307V376.604H1379.7V328.55H1544.52C1544.52 317.386 1542.07 307.496 1537.16 298.88C1532.26 290.265 1525.45 283.53 1516.75 278.676C1508.16 273.701 1498.17 271.213 1486.76 271.213C1474.86 271.213 1464.32 273.943 1455.12 279.404C1446.05 284.743 1438.93 291.964 1433.78 301.065C1428.63 310.044 1425.99 320.056 1425.87 331.098V376.786C1425.87 390.62 1428.45 402.573 1433.6 412.645C1438.87 422.716 1446.29 430.483 1455.86 435.943C1465.42 441.404 1476.77 444.134 1489.89 444.134C1498.6 444.134 1506.57 442.921 1513.8 440.494C1521.04 438.067 1527.23 434.427 1532.38 429.573C1537.53 424.719 1541.46 418.773 1544.15 411.734L1616.63 416.467C1612.95 433.698 1605.41 448.746 1594.01 461.608C1582.72 474.35 1568.13 484.301 1550.23 491.46C1532.44 498.498 1511.9 502.017 1488.6 502.017Z" fill="#171717"/>
<path d="M1662.09 123.775H1760.33L1864.08 374.238H1868.49L1972.24 123.775H2070.48V496.557H1993.22V253.921H1990.09L1892.59 494.737H1839.98L1742.48 253.011H1739.36V496.557H1662.09V123.775Z" fill="white"/>
<path d="M2127.3 496.557V123.775H2381.16V188.757H2206.95V277.584H2368.1V342.566H2206.95V431.575H2381.89V496.557H2127.3Z" fill="white"/>
<path d="M2569.23 496.557H2435.68V123.775H2570.33C2608.23 123.775 2640.85 131.238 2668.2 146.164C2695.55 160.968 2716.58 182.265 2731.3 210.054C2746.13 237.842 2753.55 271.092 2753.55 309.802C2753.55 348.633 2746.13 382.004 2731.3 409.914C2716.58 437.824 2695.42 459.242 2667.83 474.168C2640.36 489.094 2607.49 496.557 2569.23 496.557ZM2515.33 429.026H2565.92C2589.47 429.026 2609.27 424.901 2625.34 416.649C2641.52 408.276 2662.58 403.556 2670.67 386.082C2703.87 376.617 2703.59 292.845 2670.67 304.341C2670.67 276.795 2669.98 259.746 2661.76 242.271C2653.67 224.797 2641.59 211.934 2625.52 203.683C2609.46 195.431 2589.65 191.305 2566.1 191.305H2515.33V429.026Z" fill="white"/>
<path d="M2867.33 504H2854.2C2805.44 504 2765.77 465.111 2765.77 417.319V216.229H2785.18V417.324C2785.18 454.533 2816.14 484.805 2854.2 484.805H2867.33C2905.38 484.805 2936.34 454.533 2936.34 417.324V249.79H2955.74V417.324C2955.74 465.116 2916.08 504 2867.33 504Z" fill="#171717"/>
<path d="M2649.44 292.845H2630.04V200.486C2630.04 161.372 2662.49 129.549 2702.39 129.549H2712.82C2752.71 129.549 2785.16 161.372 2785.16 200.486V236.624H2765.76V200.486C2765.76 171.955 2742.01 148.748 2712.82 148.748H2702.39C2673.19 148.748 2649.44 171.955 2649.44 200.486V292.845Z" fill="#171717"/>
<path d="M2638.57 405.286C2602.71 405.286 2573.54 376.674 2573.54 341.51C2573.54 306.347 2602.72 277.739 2638.57 277.739C2674.42 277.739 2703.59 306.347 2703.59 341.51C2703.59 376.674 2674.42 405.286 2638.57 405.286ZM2638.57 296.939C2613.41 296.939 2592.95 316.925 2592.95 341.506C2592.95 366.086 2613.41 386.082 2638.57 386.082C2663.72 386.082 2684.18 366.086 2684.18 341.506C2684.18 316.925 2663.72 296.939 2638.57 296.939Z" fill="#171717"/>
<path d="M3043 127.345H3023.6V51.6129C3023.6 33.7382 3008.71 19.1995 2990.41 19.1995V0C3019.41 0 3043 23.1545 3043 51.6129V127.345Z" fill="#171717"/>
<path d="M2843.31 128.023H2823.91V52.2904C2823.91 23.8272 2847.51 0.67263 2876.52 0.67263V19.8721C2858.21 19.8721 2843.31 34.4157 2843.31 52.2904V128.023Z" fill="#171717"/>
<path d="M2955.87 260.96H2911.63C2863.59 260.96 2824.49 222.638 2824.49 175.537V127.236H2843.9V175.537C2843.9 212.049 2874.28 241.76 2911.63 241.76H2955.87C2993.21 241.76 3023.6 212.054 3023.6 175.537V127.236H3043V175.537C3043 222.638 3003.91 260.96 2955.87 260.96Z" fill="#171717"/>
</svg>
